# xmcd CD database file
#
# Track frame offsets:
#	150
#	25380
#	46127
#	69480
#	90052
#	112060
#	137682
#	168180
#	180327
#
# Disc length: 2549 seconds
#
# Revision: 0
# Processed by: cddbd v1.5.1PL0 Copyright (c) Steve Scherf et al.
# Submitted via: CDex 1.51
#
DISCID=6709f309
DTITLE=Bud Powell - Time Waits
DYEAR=1958
DGENRE=Jazz
TTITLE0=Buster Rides Again
TTITLE1=Sub City
TTITLE2=Time Waits
TTITLE3=Marmalade
TTITLE4=Monopoly
TTITLE5=John's Abbey
TTITLE6=Dry Soul
TTITLE7=Sub City [Alternate Take]
TTITLE8=John's Abbey [Alternate Take]
EXTD=YEAR: 1958
EXTT0=
EXTT1=
EXTT2=
EXTT3=
EXTT4=
EXTT5=
EXTT6=
EXTT7=
EXTT8=
PLAYORDER=
